<mxfile host="app.diagrams.net" modified="2024-01-14T16:26:21.905Z" agent="Mozilla/5.0 (Windows NT 10.0; Win64; x64) AppleWebKit/537.36 (KHTML, like Gecko) Chrome/120.0.0.0 Safari/537.36 Edg/120.0.0.0" etag="wx-UYVK6_5AOQP7gpQot" version="22.1.18" type="github">
  <diagram name="Page-1" id="l7c-KH2Oe6VSP2w0X_32">
    <mxGraphModel dx="1459" dy="826" grid="1" gridSize="10" guides="1" tooltips="1" connect="1" arrows="1" fold="1" page="1" pageScale="1" pageWidth="850" pageHeight="1100" math="0" shadow="0">
      <root>
        <mxCell id="0" />
        <mxCell id="1" parent="0" />
        <mxCell id="SI00iyuEpKyZUtCcWVq3-1" value="&lt;font style=&quot;font-size: 17px;&quot;&gt;Application&lt;/font&gt;" style="rounded=1;whiteSpace=wrap;html=1;" vertex="1" parent="1">
          <mxGeometry x="90" y="130" width="150" height="60" as="geometry" />
        </mxCell>
        <mxCell id="SI00iyuEpKyZUtCcWVq3-2" value="&lt;font style=&quot;font-size: 17px;&quot;&gt;Config&lt;/font&gt;" style="rounded=1;whiteSpace=wrap;html=1;" vertex="1" parent="1">
          <mxGeometry x="90" y="200" width="70" height="30" as="geometry" />
        </mxCell>
        <mxCell id="SI00iyuEpKyZUtCcWVq3-3" value="&lt;font style=&quot;font-size: 17px;&quot;&gt;Other&lt;/font&gt;" style="rounded=1;whiteSpace=wrap;html=1;" vertex="1" parent="1">
          <mxGeometry x="170" y="200" width="70" height="30" as="geometry" />
        </mxCell>
        <mxCell id="SI00iyuEpKyZUtCcWVq3-4" value="" style="shape=curlyBracket;whiteSpace=wrap;html=1;rounded=1;flipH=1;labelPosition=right;verticalLabelPosition=middle;align=left;verticalAlign=middle;" vertex="1" parent="1">
          <mxGeometry x="270" y="130" width="20" height="100" as="geometry" />
        </mxCell>
        <mxCell id="SI00iyuEpKyZUtCcWVq3-5" value="Dev" style="image;aspect=fixed;html=1;points=[];align=center;fontSize=12;image=img/lib/azure2/identity/Users.svg;" vertex="1" parent="1">
          <mxGeometry x="330" y="113" width="36.56" height="40" as="geometry" />
        </mxCell>
        <mxCell id="SI00iyuEpKyZUtCcWVq3-6" value="" style="endArrow=classic;html=1;rounded=0;" edge="1" parent="1">
          <mxGeometry width="50" height="50" relative="1" as="geometry">
            <mxPoint x="290" y="180.27" as="sourcePoint" />
            <mxPoint x="410" y="180.27" as="targetPoint" />
          </mxGeometry>
        </mxCell>
        <mxCell id="SI00iyuEpKyZUtCcWVq3-7" value="" style="rounded=1;whiteSpace=wrap;html=1;" vertex="1" parent="1">
          <mxGeometry x="410" y="106.5" width="120" height="147" as="geometry" />
        </mxCell>
        <mxCell id="SI00iyuEpKyZUtCcWVq3-8" value="&lt;font style=&quot;font-size: 17px;&quot;&gt;Image Registry&lt;/font&gt;" style="text;html=1;strokeColor=none;fillColor=none;align=center;verticalAlign=middle;whiteSpace=wrap;rounded=0;" vertex="1" parent="1">
          <mxGeometry x="440" y="70" width="60" height="30" as="geometry" />
        </mxCell>
        <mxCell id="SI00iyuEpKyZUtCcWVq3-9" value="" style="image;aspect=fixed;html=1;points=[];align=center;fontSize=12;image=img/lib/azure2/containers/Container_Registries.svg;" vertex="1" parent="1">
          <mxGeometry x="500" y="92" width="42.36" height="38" as="geometry" />
        </mxCell>
        <mxCell id="SI00iyuEpKyZUtCcWVq3-10" value="" style="rounded=1;whiteSpace=wrap;html=1;" vertex="1" parent="1">
          <mxGeometry x="410" y="296.5" width="120" height="147" as="geometry" />
        </mxCell>
        <mxCell id="SI00iyuEpKyZUtCcWVq3-11" value="&lt;font style=&quot;font-size: 17px;&quot;&gt;Public Registry&lt;/font&gt;" style="text;html=1;strokeColor=none;fillColor=none;align=center;verticalAlign=middle;whiteSpace=wrap;rounded=0;" vertex="1" parent="1">
          <mxGeometry x="440" y="260" width="60" height="30" as="geometry" />
        </mxCell>
      </root>
    </mxGraphModel>
  </diagram>
</mxfile>
